# xmcd
#
# Track frame offsets:
#	150
#	17775
#	30225
#	48300
#	66375
#	84600
#	96900
#	109125
#	126675
#	138975
#	168300
#	178725
#	196125
#	207600
#
# Disc length: 2923 seconds
#
# Revision: 1
# Processed by: cddbd v1.4PL0 Copyright (c) Steve Scherf et al.
# Submitted via: audiograbber 1.81.01
#
DISCID=cb0b690e
DTITLE=Various Artist - Country Folk Songs Parade
DYEAR=1900
DGENRE=Country
TTITLE0=Great pretender
TTITLE1=Seven daffodils
TTITLE2=Feelings
TTITLE3=Sad movies
TTITLE4=Don't cry for mr Argentina
TTITLE5=To sir with love
TTITLE6=Sugar sugar
TTITLE7=The other side of the sun
TTITLE8=Interlude
TTITLE9=Hey Jude
TTITLE10=Can't buy me love
TTITLE11=My sweet Lord
TTITLE12=Diana
TTITLE13=Greensleeves
EXTD=
EXTT0=
EXTT1=
EXTT2=
EXTT3=
EXTT4=
EXTT5=
EXTT6=
EXTT7=
EXTT8=
EXTT9=
EXTT10=
EXTT11=
EXTT12=
EXTT13=
PLAYORDER=
